<?xml version="1.0" standalone="no"?>
<!DOCTYPE svg PUBLIC "-//W3C//DTD SVG 20010904//EN"
 "http://www.w3.org/TR/2001/REC-SVG-20010904/DTD/svg10.dtd">
<svg version="1.0" xmlns="http://www.w3.org/2000/svg"
 width="880.000000pt" height="880.000000pt" viewBox="0 0 880.000000 880.000000"
 preserveAspectRatio="xMidYMid meet">
<metadata>
Created by potrace 1.11, written by Peter Selinger 2001-2013
</metadata>
<g transform="translate(0.000000,880.000000) scale(0.100000,-0.100000)"
fill="#000000" stroke="none">
<path d="M2527 8789 c-87 -17 -182 -81 -327 -220 -242 -233 -301 -291 -297
-295 2 -2 109 -6 238 -9 129 -2 254 -7 279 -10 25 -3 63 -7 85 -9 90 -9 161
-17 185 -21 14 -3 48 -7 75 -10 28 -3 61 -8 75 -11 14 -3 41 -7 60 -9 50 -7
186 -28 250 -39 92 -17 339 -59 356 -61 11 -2 45 -8 75 -14 30 -6 65 -13 79
-16 14 -3 39 -8 55 -11 17 -4 39 -8 50 -10 11 -2 31 -5 45 -9 14 -3 39 -8 55
-11 60 -10 231 -46 265 -54 19 -5 51 -12 70 -15 19 -3 51 -10 70 -15 19 -5 46
-11 60 -14 67 -14 299 -70 500 -121 118 -30 423 -129 495 -160 17 -7 55 -23
85 -35 30 -12 71 -29 90 -37 52 -22 344 -167 350 -173 3 -3 19 -12 35 -20 58
-29 230 -142 330 -217 46 -35 141 -119 193 -172 132 -133 206 -259 238 -406 1
-5 7 -30 13 -55 7 -25 13 -54 15 -65 3 -11 9 -34 14 -52 6 -17 8 -34 4 -37 -3
-3 -1 -6 5 -6 8 0 66 46 114 90 9 8 49 44 89 80 123 108 220 210 220 230 0 5
4 10 9 10 20 0 64 126 67 192 9 199 -193 506 -465 708 -19 14 -39 30 -45 35
-22 19 -75 55 -82 55 -4 0 -17 8 -28 18 -85 74 -484 270 -736 361 -63 23 -124
46 -135 51 -11 5 -101 34 -200 65 -99 31 -192 60 -207 65 -16 5 -28 7 -28 4 0
-3 -8 0 -18 5 -14 7 -200 59 -272 76 -8 1 -71 17 -140 33 -132 32 -278 65
-295 67 -5 0 -35 6 -65 13 -30 6 -66 14 -80 16 -14 3 -25 5 -25 6 0 2 -7 3
-65 13 -33 6 -139 26 -170 32 -14 3 -40 7 -59 10 -18 2 -41 7 -50 9 -9 3 -32
7 -51 10 -19 2 -89 13 -155 25 -183 30 -187 31 -229 36 -21 2 -64 9 -95 14
-31 5 -74 12 -96 15 -22 3 -86 12 -143 21 -56 8 -119 17 -140 20 -34 4 -128
16 -227 30 -77 10 -320 13 -368 4z"/>
<path d="M1660 7852 c-25 -2 -49 -7 -53 -11 -8 -8 23 -67 58 -109 7 -9 53 -66
102 -127 48 -60 90 -112 93 -115 3 -3 25 -30 50 -60 25 -30 47 -57 50 -60 3
-3 48 -54 100 -115 52 -60 97 -112 100 -115 3 -3 36 -41 75 -85 38 -44 77 -87
85 -95 8 -8 37 -42 65 -75 27 -33 52 -62 55 -65 18 -15 237 -291 271 -342 43
-63 45 -83 7 -90 -46 -8 -318 3 -388 16 -14 3 -47 7 -75 10 -27 3 -67 8 -88
11 -154 21 -163 22 -227 30 -30 3 -66 8 -80 10 -14 2 -50 7 -80 10 -30 4 -58
9 -62 11 -13 8 -18 -15 -5 -28 7 -7 28 -35 47 -63 19 -27 40 -54 46 -60 6 -5
53 -66 104 -135 52 -69 96 -127 100 -130 3 -3 17 -21 30 -40 13 -19 29 -40 35
-46 5 -6 24 -28 40 -49 17 -21 36 -44 43 -51 6 -7 12 -15 12 -19 0 -8 82 -109
93 -113 4 -2 7 -8 7 -13 0 -5 8 -18 18 -28 9 -11 22 -26 28 -33 20 -25 127
-164 162 -210 20 -27 40 -48 44 -48 4 0 8 -6 8 -14 0 -8 4 -16 8 -18 4 -1 64
-75 132 -163 69 -88 127 -162 130 -165 3 -3 18 -23 35 -45 16 -22 32 -42 35
-45 3 -3 21 -25 40 -50 19 -25 37 -47 40 -50 3 -3 17 -21 30 -40 13 -19 27
-37 30 -40 3 -3 19 -23 36 -45 16 -22 39 -51 52 -65 19 -21 27 -45 24 -71 -1
-7 -10 -228 -17 -409 -3 -74 -8 -184 -10 -245 -3 -60 -8 -164 -10 -230 -3 -66
-7 -165 -10 -220 -2 -55 -7 -170 -10 -255 -6 -149 -9 -224 -21 -485 -32 -736
-34 -1048 -6 -1150 11 -41 44 -45 69 -8 71 101 186 377 395 948 22 61 47 124
54 142 8 17 14 34 14 38 0 4 6 21 14 38 8 18 19 48 25 67 5 19 30 89 56 155
25 66 48 127 50 135 2 8 9 29 16 45 7 17 13 33 13 37 1 3 4 10 9 14 4 4 7 14
7 22 0 8 6 28 14 45 8 18 49 127 91 242 42 116 81 222 87 237 5 15 9 30 8 34
-1 4 2 10 7 13 4 3 17 31 27 61 22 64 82 224 134 359 40 101 39 101 127 117
17 3 56 12 88 20 32 8 77 19 100 23 23 5 85 19 137 31 52 12 102 23 110 25 8
2 65 15 125 30 61 15 119 28 130 30 11 2 21 4 23 5 1 2 5 3 10 4 252 66 593
206 759 312 29 19 56 34 58 34 14 0 163 119 228 182 84 82 170 200 182 248 1
3 7 18 14 34 6 15 24 69 40 120 50 155 64 249 63 406 -2 118 -3 131 -22 215
-8 33 -14 62 -15 65 -10 50 -73 185 -120 260 -101 161 -263 320 -465 459 -42
28 -81 51 -87 51 -7 0 -16 6 -20 13 -8 12 -17 17 -148 86 -38 20 -73 40 -76
44 -3 5 -9 8 -13 7 -3 0 -34 12 -69 28 -55 26 -86 40 -162 73 -111 47 -334
126 -505 179 -201 62 -234 72 -250 75 -8 2 -35 8 -60 15 -25 7 -47 12 -50 12
-3 1 -34 9 -70 18 -109 29 -455 108 -590 134 -14 2 -61 12 -105 21 -44 9 -91
18 -105 20 -14 2 -77 14 -140 25 -102 18 -237 41 -325 56 -16 2 -41 7 -55 9
-14 3 -43 7 -65 10 -56 7 -126 17 -150 22 -11 2 -37 6 -57 8 -21 3 -57 7 -80
10 -24 3 -61 8 -83 10 -22 3 -53 7 -70 10 -16 3 -52 8 -80 11 -60 6 -110 12
-110 14 0 0 -29 3 -65 5 -36 3 -87 7 -115 10 -45 5 -162 13 -255 18 -19 1 -55
1 -80 -1z m1990 -965 c8 -2 42 -9 75 -16 33 -7 85 -20 115 -28 30 -9 55 -15
55 -14 0 4 427 -146 480 -169 51 -23 181 -70 193 -70 6 0 12 -4 12 -8 0 -5 6
-9 13 -9 18 0 145 -57 272 -121 110 -56 274 -161 350 -224 59 -49 175 -171
175 -184 0 -6 7 -17 15 -24 9 -7 29 -41 45 -76 84 -182 51 -349 -98 -502 -100
-102 -209 -171 -410 -258 -396 -173 -664 -181 -866 -25 -59 45 -187 184 -227
246 -76 117 -48 172 83 168 64 -3 75 -4 173 -28 39 -9 85 -19 104 -21 19 -3
37 -7 41 -9 5 -3 22 -2 39 1 28 6 30 9 26 42 -4 31 -96 209 -115 222 -4 3 -15
19 -24 35 -9 17 -30 48 -47 70 -16 22 -34 50 -39 63 -5 12 -14 22 -19 22 -5 0
-11 8 -14 18 -4 9 -36 58 -72 107 -36 50 -68 97 -72 105 -4 8 -11 20 -15 25
-36 44 -78 106 -78 114 0 6 -4 11 -9 11 -5 0 -13 9 -16 20 -3 11 -12 26 -18
32 -7 7 -44 60 -82 118 -39 58 -73 107 -77 108 -5 2 -8 8 -8 14 0 5 -13 28
-29 51 -15 23 -42 69 -58 102 -25 50 -29 64 -20 84 10 22 15 23 72 17 33 -3
67 -7 75 -9z"/>
<path d="M4843 3944 c-88 -18 -127 -39 -179 -98 -45 -51 -144 -205 -144 -224
0 -6 -3 -12 -7 -14 -5 -1 -29 -46 -54 -98 -74 -153 -139 -296 -139 -304 0 -3
-13 -34 -29 -68 -36 -80 -195 -475 -272 -678 -33 -85 -62 -162 -66 -170 -3 -8
-7 -17 -7 -20 -2 -7 -27 -72 -37 -95 -10 -22 -225 -602 -241 -650 -16 -48 -18
-55 -15 -59 1 -1 -3 -9 -9 -17 -9 -11 -46 -108 -49 -129 0 -3 -6 -14 -11 -25
-11 -20 -27 -77 -24 -84 1 -2 -2 -7 -7 -10 -4 -3 -21 -42 -36 -86 -16 -44 -42
-116 -58 -160 -17 -44 -47 -127 -68 -185 -21 -58 -66 -181 -100 -275 -34 -93
-73 -199 -86 -235 -13 -36 -33 -92 -45 -125 -12 -33 -24 -67 -25 -75 -2 -8 -4
-15 -5 -15 -1 0 -3 -10 -6 -22 -5 -32 5 -29 57 14 101 86 322 331 439 488 25
33 51 66 58 73 6 7 12 17 12 21 0 4 8 16 18 27 25 28 169 249 185 284 4 8 18
33 31 55 122 197 331 641 495 1055 34 85 67 166 73 180 13 28 12 25 23 65 4
17 11 35 15 40 4 6 13 28 20 50 7 22 19 55 27 72 7 18 14 36 14 40 1 5 12 37
26 73 32 85 251 711 257 735 1 6 25 82 53 170 122 382 128 416 82 456 -20 17
-35 23 -89 33 -8 2 -43 -3 -77 -10z"/>
</g>
</svg>
